<svg xmlns="http://www.w3.org/2000/svg" viewBox="0 0 400 400">
  <path d="M259.68589,405.2391H158.02083a10.28839,10.28839,0,0,1-10.27672-10.27678V332.3462a10.28839,10.28839,0,0,1,10.27672-10.27678H259.68589a10.28841,10.28841,0,0,1,10.27678,10.27678v62.61613A10.28841,10.28841,0,0,1,259.68589,405.2391Z" transform="translate(-147.74411 -156.06942)" fill="#e6e6e6"/>
  <path d="M219.29275,397.17371H165.16726a9.63563,9.63563,0,0,1-9.625-9.62451v-47.79a9.63563,9.63563,0,0,1,9.625-9.62451h87.37256a9.63521,9.63521,0,0,1,9.62451,9.62451v14.54346A42.91981,42.91981,0,0,1,219.29275,397.17371Z" transform="translate(-147.74411 -156.06942)" fill="#fff"/>
  <path d="M243.82362,356.3034H173.8831a2.281,2.281,0,1,1,0-4.562h69.94052a2.281,2.281,0,1,1,0,4.562Z" transform="translate(-147.74411 -156.06942)" fill="#636bff"/>
  <path d="M184.82362,365.31674H173.8831a2.28111,2.28111,0,0,1,0-4.56221h10.94052a2.28111,2.28111,0,0,1,0,4.56221Z" transform="translate(-147.74411 -156.06942)" fill="#636bff"/>
  <path d="M204.20063,374.33007H173.8831a2.28111,2.28111,0,0,1,0-4.56221h30.31753a2.2811,2.2811,0,0,1,0,4.56221Z" transform="translate(-147.74411 -156.06942)" fill="#636bff"/>
</svg>
