<svg xmlns="http://www.w3.org/2000/svg" viewBox="0 0 400 400">
  <path d="M473.32878,373.36151H441.52507a4.50049,4.50049,0,0,1-3.53466-1.70263,4.40807,4.40807,0,0,1-.8628-3.74561,86.52041,86.52041,0,0,0-.47949-40.24023,4.4894,4.4894,0,0,1,2.124-4.978c15.44971-8.84375,27.68311-8.59961,37.39991.74658a4.4406,4.4406,0,0,1,1.2788,2.47608,141.55617,141.55617,0,0,1,.33838,43.57226A4.49087,4.49087,0,0,1,473.32878,373.36151Z" transform="translate(-147.74411 -156.06942)" fill="#ff6584"/>
  <path d="M460.46882,343.5127H449.5283a2.28111,2.28111,0,0,1,0-4.56221h10.94052a2.28111,2.28111,0,0,1,0,4.56221Z" transform="translate(-147.74411 -156.06942)" fill="#fff"/>
  <path d="M473.84583,352.526H449.5283a2.2811,2.2811,0,0,1,0-4.56221h24.31753a2.28111,2.28111,0,0,1,0,4.56221Z" transform="translate(-147.74411 -156.06942)" fill="#fff"/>
</svg>
