 <svg data-name="Layer 1" xmlns="http://www.w3.org/2000/svg" width="938.45709" height="497.70591" viewBox="0 0 938.45709 497.70591" xmlns:xlink="http://www.w3.org/1999/xlink"><path d="M416.82831,399.459c-.02724-14.29689,3.52056-28.80345,11.54558-40.762a51.66442,51.66442,0,0,1,33.43184-22.24958,41.831,41.831,0,0,1,20.08357,1.16577,36.29766,36.29766,0,0,1,15.38083,9.88793c8.04154,8.59581,13.00154,22.31371,8.33733,33.76025a21.07183,21.07183,0,0,1-11.99372,11.72282c-4.79946,1.6589-10.71413.3746-12.77763-4.75623-1.76922-4.39915.07787-9.68784,3.03142-13.12532a13.42076,13.42076,0,0,1,14.38988-4.15511c6.31773,1.78768,11.29957,6.93442,14.28211,12.619,3.46727,6.60844,4.19087,14.42251,3.46212,21.75347-1.60612,16.15707-9.96077,30.53805-16.11114,45.24592-5.71682,13.67109-10.471,29.48857-6.071,44.22326a35.8297,35.8297,0,0,0,25.41262,24.1439c11.34856,3.04282,24.62575.87911,32.68575-8.20112,3.80065-4.28172,6.57555-9.85182,6.61357-15.6696a15.31454,15.31454,0,0,0-7.56843-13.50394c-9.82107-5.495-23.08285.15365-27.19725,10.2035-2.5181,6.15072-2.04095,13.22162.33461,19.33843A35.72806,35.72806,0,0,0,536.45986,526.807c5.74419,4.26722,12.454,7.10374,19.23344,9.2741a109.3653,109.3653,0,0,0,21.69221,4.70879c14.05992,1.49918,28.73276-.84577,39.75307-10.26731,9.69323-8.287,15.02879-20.55468,17.74333-32.7716,3.14982-14.17592,2.67646-28.65381,2.70556-43.078.031-15.37113.41972-32.149,7.8249-46.04392,5.82312-10.9264,16.11537-20.49114,28.40016-23.3494a27.515,27.515,0,0,1,16.996,1.39822c1.77794.74571,2.55422-2.156.79752-2.89283-11.80475-4.95117-24.79576-1.06652-34.54208,6.47035a53.12441,53.12441,0,0,0-12.87137,14.45178,61.78227,61.78227,0,0,0-7.37659,20.25854c-5.6839,28.98472,3.10454,60.27736-10.13508,87.82588a47.66934,47.66934,0,0,1-10.79714,14.8476,40.53354,40.53354,0,0,1-18.32761,9.31466c-14.369,3.258-29.95712.167-43.63188-4.62439-13.10791-4.59275-26.20941-13.20883-28.5564-27.9561-.96731-6.07806.40394-12.87242,5.04251-17.185a17.953,17.953,0,0,1,14.65868-4.52574,12.213,12.213,0,0,1,10.30224,10.111c.93442,5.71015-1.85607,11.65338-5.57475,15.83707-8.16589,9.187-21.81461,10.47495-32.89166,6.44417a33.946,33.946,0,0,1-14.14978-9.71284,33.4459,33.4459,0,0,1-7.47685-18.97727c-1.29651-15.72888,5.5055-30.85743,11.89526-44.80437,6.50965-14.2086,13.5043-29.81213,11.85266-45.838a35.36639,35.36639,0,0,0-7.74562-19.38267c-4.10255-4.90456-9.92989-8.58907-16.42072-8.99452a16.00907,16.00907,0,0,0-13.709,6.36811c-3.07042,3.92287-4.8629,9.27955-3.558,14.22647a12.19063,12.19063,0,0,0,11.59837,8.80764c5.73946.10087,11.20283-3.33907,14.87887-7.52366,8.30914-9.45862,7.5033-23.45794,2.11514-34.15809a40.36143,40.36143,0,0,0-29.54833-21.76545c-13.37739-2.07606-27.30693,2.05138-38.02357,10.17-11.41523,8.64788-18.82563,21.617-22.30232,35.37034a83.58375,83.58375,0,0,0-2.48267,20.61846,1.5009,1.5009,0,0,0,3,0Z" transform="translate(-130.77146 -201.14705)" fill="#636bff"/></svg>